<svg xmlns="http://www.w3.org/2000/svg" width="262" height="47" fill="none" viewBox="0 0 262 47"><path fill="#000" d="M66.74 41.59v1.85h-.44V42h-5.76v1.44h-.45v-1.85h.35c.41-.04.7-.39.87-1.05.16-.66.27-1.58.3-2.77l.06-2.07h4.1v5.89h.97Zm-4.7-3.78a16.6 16.6 0 0 1-.25 2.5c-.12.65-.33 1.07-.62 1.28h4.14V36.1h-3.22l-.06 1.7Zm6-.5h.46v4l3.35-4h.4V42h-.46v-4l-3.35 4h-.4v-4.7Zm8.1 2.24c.35.07.62.2.8.4.2.19.3.43.3.7 0 .29-.1.53-.28.74-.18.2-.43.37-.74.48a3.28 3.28 0 0 1-2 .02c-.33-.1-.6-.26-.85-.46l.18-.33c.21.18.46.32.75.41.3.1.6.15.9.15.44 0 .81-.1 1.12-.28.3-.2.46-.45.46-.76 0-.27-.13-.49-.39-.64-.25-.17-.6-.25-1.03-.25h-.75v-.34h.74c.37 0 .68-.08.92-.23.25-.14.37-.35.37-.6 0-.3-.13-.52-.4-.67-.27-.16-.6-.25-1.02-.25-.53 0-1.03.14-1.5.4l-.13-.35a3.4 3.4 0 0 1 1.68-.44c.53 0 .96.11 1.3.34.36.22.53.52.53.9 0 .25-.09.47-.26.66-.17.18-.4.32-.7.4Zm4.22-2.28c.58 0 1.03.15 1.34.45.31.29.47.73.47 1.3V42h-.43v-.84c-.15.28-.37.5-.66.65-.29.15-.63.23-1.03.23-.52 0-.94-.13-1.24-.37a1.2 1.2 0 0 1-.45-.98c0-.38.13-.7.4-.94.3-.25.74-.37 1.35-.37h1.61V39c0-.44-.12-.77-.36-1-.23-.22-.58-.34-1.03-.34-.32 0-.62.06-.9.16-.29.11-.53.26-.72.44l-.23-.33a3 3 0 0 1 1.88-.67Zm-.25 4.4c.39 0 .72-.1.99-.27.28-.18.48-.44.62-.79v-.88h-1.6c-.46 0-.8.09-1 .25-.21.17-.31.4-.31.7 0 .3.1.55.34.73.22.17.55.26.96.26ZM84 37.3h.45v4l3.35-4h.4V42h-.46v-4l-3.34 4H84v-4.7Zm2.08-.72c-.38 0-.69-.1-.92-.29-.23-.2-.35-.47-.36-.81h.33c0 .24.1.44.27.58.18.14.4.22.68.22.27 0 .49-.08.66-.22a.74.74 0 0 0 .27-.59h.35c-.01.35-.13.63-.36.82-.24.2-.54.3-.92.3Zm4.05.72h.45v2.14h3.19V37.3h.45V42h-.45v-2.16h-3.19V42h-.45v-4.7Zm10.22 4.74c-.45 0-.85-.1-1.2-.31-.36-.2-.64-.49-.85-.85-.2-.36-.3-.77-.3-1.23 0-.45.1-.86.3-1.22.2-.37.49-.65.84-.86.36-.2.76-.3 1.2-.3.45 0 .85.1 1.2.3.36.2.65.5.85.86.2.36.3.77.3 1.22 0 .46-.1.87-.3 1.23-.2.36-.49.65-.85.85-.35.2-.75.3-1.2.3Zm0-.4a1.85 1.85 0 0 0 1.64-.96c.16-.3.25-.65.25-1.03s-.09-.73-.25-1.02a1.85 1.85 0 0 0-1.64-.95c-.36 0-.69.08-.98.24-.28.17-.5.4-.67.7-.16.3-.24.65-.24 1.03s.08.73.24 1.03c.17.3.4.53.67.7.3.17.62.25.98.25Zm5.99-4.27c.44 0 .82.1 1.16.3.34.2.6.46.8.81.2.35.29.75.29 1.2 0 .46-.1.87-.3 1.23-.19.36-.46.63-.82.84-.34.2-.74.3-1.2.3-.51 0-.95-.13-1.32-.38-.36-.26-.63-.61-.83-1.07-.18-.47-.27-1-.27-1.62 0-.7.08-1.29.25-1.75.17-.46.43-.82.77-1.09.35-.27.8-.47 1.33-.6l2.08-.5.08.42-1.98.46c-.5.12-.89.29-1.2.5-.3.23-.52.52-.67.9-.15.38-.23.86-.23 1.45.15-.43.41-.77.78-1.02.37-.25.8-.38 1.28-.38Zm-.06 4.29c.36 0 .68-.09.96-.25.28-.17.5-.4.66-.7.15-.3.23-.64.23-1.01 0-.38-.08-.72-.23-1-.16-.3-.38-.52-.66-.68-.28-.16-.6-.24-.95-.24-.37 0-.69.08-.97.24-.28.16-.5.38-.65.68-.16.28-.24.62-.24 1 0 .37.08.71.23 1.01.16.3.38.53.66.7.28.16.6.25.97.25Zm10.1-4.36V42h-6.31v-4.7h.45v4.3h2.5v-4.3h.44v4.3h2.48v-4.3h.45Zm.74 4.3v1.46h-.43V42h-.79v-.4h1.22Zm5.21-1.84h-4.04c.02.37.1.7.28.98.18.28.41.5.7.66.3.15.64.23 1.01.23.3 0 .59-.05.85-.16.26-.12.48-.28.66-.5l.26.3a2 2 0 0 1-.78.57c-.3.13-.64.2-1 .2-.46 0-.88-.1-1.25-.31a2.25 2.25 0 0 1-1.17-2.08c0-.45.1-.86.29-1.22a2.18 2.18 0 0 1 1.96-1.16 2.16 2.16 0 0 1 1.95 1.14c.2.36.3.77.3 1.22l-.02.13Zm-2.23-2.1a1.77 1.77 0 0 0-1.53.85c-.15.26-.24.56-.27.9h3.6c-.02-.34-.1-.64-.27-.9a1.76 1.76 0 0 0-1.53-.85Zm5.61 4.38c-.45 0-.86-.1-1.22-.31a2.2 2.2 0 0 1-.85-.85c-.2-.36-.3-.77-.3-1.23 0-.46.1-.87.3-1.23.2-.37.49-.65.85-.85.36-.2.77-.3 1.22-.3.38 0 .72.07 1.03.22.31.14.56.36.76.64l-.34.24c-.17-.23-.38-.4-.63-.52a1.84 1.84 0 0 0-.82-.18c-.36 0-.7.09-.99.25-.28.16-.51.4-.68.7-.16.3-.24.64-.24 1.03 0 .4.08.74.24 1.04.17.3.4.53.68.7.3.16.63.24 1 .24.3 0 .57-.06.81-.17.25-.12.46-.3.63-.53l.34.24c-.2.28-.45.5-.76.65-.3.14-.65.22-1.03.22Zm6.15-4.33h-1.84V42h-.45v-4.3h-1.83v-.4h4.12v.4Zm3.74 1.87c.7.12 1.04.5 1.04 1.16 0 .4-.15.72-.45.94-.3.21-.74.32-1.33.32h-2.04v-4.7h1.98c.52 0 .93.1 1.23.32.3.2.45.5.45.88 0 .27-.08.5-.24.7-.15.17-.36.3-.64.38Zm-2.34-.14h1.52c.4 0 .7-.07.92-.22a.77.77 0 0 0 .33-.67c0-.3-.11-.51-.33-.65a1.59 1.59 0 0 0-.92-.23h-1.52v1.77Zm1.59 2.2c.9 0 1.34-.31 1.34-.92 0-.32-.1-.55-.3-.7-.21-.15-.53-.23-.97-.23h-1.66v1.84h1.59Zm7.4-1.88h-4.05c.01.37.1.7.28.98.17.28.4.5.7.66.3.15.64.23 1.01.23.3 0 .59-.05.85-.16.26-.12.48-.28.65-.5l.26.3a2 2 0 0 1-.77.57c-.3.13-.64.2-1 .2-.47 0-.88-.1-1.25-.31a2.25 2.25 0 0 1-1.17-2.08c0-.45.1-.86.29-1.22a2.18 2.18 0 0 1 1.96-1.16 2.16 2.16 0 0 1 1.94 1.14c.2.36.3.77.3 1.22v.13Zm-2.24-2.1a1.77 1.77 0 0 0-1.53.85c-.16.26-.25.56-.27.9h3.6c-.02-.34-.1-.64-.27-.9a1.76 1.76 0 0 0-1.53-.85Zm3.71-.36h.45v2.14h3.19V37.3h.45V42h-.45v-2.16h-3.19V42h-.45v-4.7Zm6.03 0h.45v2.14h3.19V37.3h.45V42h-.45v-2.16h-3.19V42h-.45v-4.7Zm7.88 1.71c.59 0 1.03.14 1.34.39.3.25.46.6.46 1.09 0 .5-.17.88-.5 1.14-.31.27-.78.4-1.4.39l-1.75-.02v-4.7h.45V39l1.4.01Zm2.66-1.7h.45V42h-.45v-4.7Zm-2.77 4.35c.48 0 .84-.1 1.09-.29.24-.2.36-.5.36-.88s-.12-.66-.35-.84c-.25-.18-.61-.28-1.1-.3h-1.29v2.29l1.29.02Zm8.1.34L164 39.9l-1.6 2.1h-.52l1.86-2.42-1.76-2.28h.51l1.51 1.96 1.51-1.96h.5l-1.76 2.28 1.9 2.42h-.54Zm8.08-4.7V42h-.45v-4.3h-3.2V42h-.45v-4.7h4.1Zm4.31-.03c.44 0 .83.1 1.19.3.35.2.63.49.83.85.2.36.3.77.3 1.23 0 .46-.1.88-.3 1.24-.2.36-.48.64-.83.85-.36.2-.75.3-1.19.3-.41 0-.79-.1-1.13-.3-.33-.19-.6-.46-.78-.81v2.82h-.45V37.3h.43v1.1c.19-.35.45-.63.79-.83.34-.2.72-.3 1.14-.3Zm-.03 4.36c.36 0 .69-.08.98-.25.28-.17.5-.4.67-.7.17-.3.25-.65.25-1.03s-.08-.73-.25-1.02c-.16-.3-.39-.54-.67-.7a1.9 1.9 0 0 0-.98-.26c-.36 0-.68.09-.97.25-.28.17-.5.4-.67.7-.17.3-.25.65-.25 1.03s.08.73.25 1.03c.16.3.39.53.67.7.29.17.61.25.97.25Zm5.69.4a2.22 2.22 0 0 1-2.04-1.15c-.21-.36-.31-.77-.31-1.23 0-.45.1-.86.3-1.22.2-.37.49-.65.84-.86.36-.2.76-.3 1.2-.3.45 0 .85.1 1.2.3.36.2.65.5.85.86.2.36.3.77.3 1.22 0 .46-.1.87-.3 1.23-.2.36-.49.65-.85.85-.35.2-.75.3-1.2.3Zm0-.4a1.85 1.85 0 0 0 1.64-.95c.16-.3.25-.65.25-1.03s-.09-.73-.25-1.02a1.85 1.85 0 0 0-1.64-.95c-.36 0-.69.08-.97.24-.29.17-.51.4-.68.7-.16.3-.24.65-.24 1.03s.08.73.24 1.03c.17.3.4.53.67.7.3.17.62.25.98.25Zm5.71.4c-.45 0-.86-.1-1.22-.3a2.2 2.2 0 0 1-.85-.85c-.2-.36-.3-.77-.3-1.23 0-.46.1-.87.3-1.23.2-.37.49-.65.85-.85.36-.2.77-.3 1.22-.3.38 0 .72.07 1.03.22.3.14.56.36.75.64l-.33.24c-.17-.23-.38-.4-.63-.52a1.84 1.84 0 0 0-.82-.18c-.37 0-.7.09-.99.25-.29.16-.51.4-.68.7-.17.3-.25.64-.25 1.03 0 .4.08.74.25 1.04.16.3.4.53.68.7.3.16.63.24 1 .24.3 0 .56-.06.81-.17.25-.12.46-.3.63-.53l.33.24c-.19.28-.44.5-.75.65-.3.14-.65.22-1.03.22Zm6.15-4.32h-1.84V42h-.45v-4.3h-1.84v-.4h4.13v.4Zm3.33-.44c.44 0 .83.1 1.19.3.35.2.63.49.82.85.2.36.31.77.31 1.23 0 .46-.1.88-.3 1.24-.2.36-.48.64-.83.85-.36.2-.75.3-1.2.3-.4 0-.78-.1-1.12-.3-.33-.19-.6-.46-.78-.81v2.82h-.45V37.3h.43v1.1c.19-.35.45-.63.78-.83.35-.2.73-.3 1.15-.3Zm-.03 4.36c.36 0 .68-.08.97-.25.3-.17.52-.4.68-.7.17-.3.25-.65.25-1.03s-.08-.73-.25-1.02c-.16-.3-.39-.54-.68-.7a1.9 1.9 0 0 0-.97-.26c-.36 0-.68.09-.97.25-.28.17-.5.4-.68.7-.16.3-.24.65-.24 1.03s.08.73.24 1.03c.17.3.4.53.68.7.29.17.61.25.97.25Zm5.35-4.36c.58 0 1.03.15 1.34.45.31.29.47.73.47 1.3V42h-.43v-.84c-.15.28-.37.5-.66.65-.29.15-.63.23-1.03.23-.53 0-.94-.13-1.25-.37a1.2 1.2 0 0 1-.44-.98c0-.38.13-.7.4-.94.3-.25.74-.37 1.35-.37h1.61V39c0-.44-.12-.77-.36-1-.23-.22-.58-.34-1.03-.34-.32 0-.62.06-.9.16-.29.11-.53.26-.72.44l-.23-.33a3 3 0 0 1 1.88-.67Zm-.25 4.4c.39 0 .72-.1.99-.27.28-.18.48-.44.62-.79v-.88h-1.6c-.46 0-.8.09-1 .25-.21.17-.31.4-.31.7 0 .3.1.55.34.73.22.17.55.26.96.26Zm3.89-4.37h.45v2.14h3.19V37.3h.45V42h-.45v-2.16h-3.19V42h-.45v-4.7Zm7.93 4.74c-.46 0-.87-.1-1.23-.31a2.2 2.2 0 0 1-.84-.85c-.2-.36-.3-.77-.3-1.23 0-.46.1-.87.3-1.23.2-.37.48-.65.84-.85.36-.2.77-.3 1.23-.3.38 0 .72.07 1.02.22.32.14.57.36.76.64l-.33.24c-.17-.23-.38-.4-.63-.52a1.84 1.84 0 0 0-.82-.18c-.37 0-.7.09-1 .25-.28.16-.5.4-.68.7-.16.3-.24.64-.24 1.03 0 .4.08.74.24 1.04.17.3.4.53.69.7.3.16.62.24.99.24.3 0 .57-.06.82-.17.25-.12.46-.3.63-.53l.33.24c-.2.28-.44.5-.76.65-.3.14-.64.22-1.02.22Zm6.14-4.33h-1.83V42h-.45v-4.3h-1.84v-.4h4.12v.4Zm3.75 1.87c.69.12 1.03.5 1.03 1.16 0 .4-.15.72-.45.94-.29.21-.73.32-1.33.32h-2.03v-4.7h1.98c.52 0 .93.1 1.22.32.3.2.45.5.45.88 0 .27-.08.5-.23.7-.15.17-.37.3-.64.38Zm-2.34-.14h1.51c.4 0 .71-.07.93-.22a.77.77 0 0 0 .32-.67c0-.3-.1-.51-.32-.65a1.59 1.59 0 0 0-.93-.23h-1.51v1.77Zm1.58 2.2c.9 0 1.34-.31 1.34-.92 0-.32-.1-.55-.3-.7-.2-.15-.53-.23-.96-.23h-1.66v1.84h1.58Z"/><path fill="#F5D581" d="M42 27.48V46.5c0 .27-.2.48-.46.48H16.96a.47.47 0 0 1-.46-.48v-5.01h4.07c.51 0 .93-.43.93-.97V37h4.07c.51 0 .93-.43.93-.97v-4.2h4.07c.51 0 .93-.43.93-.97V27h10.04c.25 0 .46.22.46.48Z"/><path stroke="#F5D581" d="M20.52.87v5.22"/><path stroke="#F5D581" stroke-linejoin="round" d="M17.57 6.1h6.64l1.9 6.09H15.67l1.9-6.1Z"/><path stroke="#F5D581" d="M4.5 41.5h5v3a1 1 0 0 1-1 1h-3a1 1 0 0 1-1-1v-3ZM36.5 28.72v-9.57M32 27.5v-8M27 33.94V20M22 38.3V24.5M17 42.3V29"/><path fill="#F5D581" d="M3.5 41h7c.28 0 .5.11.5.25v.5c0 .14-.22.25-.5.25h-7c-.28 0-.5-.11-.5-.25v-.5c0-.14.22-.25.5-.25Z"/><path stroke="#F5D581" d="m5.69 40.07.19.25.02.04c.13.23.23.46.3.7a3.4 3.4 0 0 1-1.08-.72c-.24-.3-.41-.64-.51-1 .4.18.77.43 1.08.73ZM6.43 39.36c.07-.49.22-.95.46-1.37a4.02 4.02 0 0 1 .17 1.68c-.14.3-.25.63-.33.95-.08-.3-.18-.6-.3-.88v-.38ZM7.87 40.1a4.4 4.4 0 0 1 1.52-.8c-.12.35-.33.7-.63 1-.41.35-.93.62-1.5.8.08-.25.2-.5.37-.73l.02-.03.22-.24Z"/><path fill="#F5D581" d="M12 34.5a.5.5 0 0 0 1 0h-1Zm1.5-2.4.33.38-.34-.37Zm13.35-12 .33.37-.33-.37Zm14.65-1.02H28.18v1H41.5v-1Zm-14.99.64L13.16 31.73l.67.75 13.35-12.01-.67-.75ZM12 34.34v.16h1v-.16h-1Zm1.16-2.6a3.5 3.5 0 0 0-1.16 2.6h1c0-.71.3-1.39.83-1.86l-.67-.75Zm15.02-12.66a2.5 2.5 0 0 0-1.67.64l.67.75a1.5 1.5 0 0 1 1-.39v-1Z"/><path fill="#9F7303" d="M62.05 25V12.4h1.33V25h-1.33Zm7.23 0V12.4h1.1l8.7 10.94h-.58V12.4h1.31V25h-1.1l-8.67-10.94h.58V25h-1.34Zm18.9 0V13.55h-4.43V12.4h10.18v1.15h-4.42V25h-1.34Zm10.87-6.97h6.66v1.14h-6.66v-1.14Zm.14 5.82h7.58V25h-8.9V12.4h8.63v1.15h-7.3v10.3ZM111.7 25V12.4h4.72c1.07 0 1.98.17 2.75.52.77.34 1.36.83 1.77 1.48.42.63.63 1.4.63 2.32 0 .89-.21 1.66-.63 2.3-.41.64-1 1.13-1.77 1.48-.77.34-1.68.5-2.75.5h-3.98l.6-.6V25h-1.34Zm8.6 0-3.23-4.57h1.44l3.25 4.57h-1.45Zm-7.27-4.5-.59-.63h3.94c1.26 0 2.22-.28 2.87-.83.66-.55.98-1.32.98-2.32 0-1-.33-1.79-.98-2.34-.65-.55-1.6-.83-2.87-.83h-3.94l.6-.63v7.58Zm13.48 4.5V12.4h1.33V25h-1.33Zm12.74.1a6.53 6.53 0 0 1-4.75-1.82 6.58 6.58 0 0 1-1.39-2.02 6.6 6.6 0 0 1-.48-2.56 6.31 6.31 0 0 1 3.98-5.92c.8-.33 1.68-.49 2.64-.49.95 0 1.82.16 2.63.49a6.1 6.1 0 0 1 3.47 3.36c.34.78.5 1.64.5 2.56a6.4 6.4 0 0 1-1.88 4.59 6.33 6.33 0 0 1-2.1 1.35 7.2 7.2 0 0 1-2.62.47Zm0-1.18c.76 0 1.45-.13 2.09-.38a5.01 5.01 0 0 0 2.79-2.75c.26-.64.4-1.33.4-2.09a5.26 5.26 0 0 0-1.52-3.73 5.4 5.4 0 0 0-3.76-1.5 5.53 5.53 0 0 0-3.8 1.5 5.26 5.26 0 0 0-1.51 3.73 5.35 5.35 0 0 0 1.51 3.74 5.21 5.21 0 0 0 3.8 1.48Zm11.4 1.08V12.4h4.7c1.08 0 2 .17 2.76.52.77.34 1.36.83 1.77 1.48.42.63.63 1.4.63 2.32 0 .89-.21 1.66-.63 2.3-.41.64-1 1.13-1.77 1.48-.77.34-1.68.5-2.75.5h-3.98l.6-.6V25h-1.34Zm8.6 0L156 20.43h1.44L160.7 25h-1.45Zm-7.28-4.5-.59-.63h3.94c1.26 0 2.22-.28 2.86-.83.66-.55 1-1.32 1-2.32 0-1-.34-1.79-1-2.34-.64-.55-1.6-.83-2.86-.83h-3.94l.6-.63v7.58Zm20 4.5V12.4h1.32v11.45h7.06V25h-8.39Zm17.65.1a6.53 6.53 0 0 1-4.75-1.82 6.58 6.58 0 0 1-1.38-2.02 6.6 6.6 0 0 1-.5-2.56 6.31 6.31 0 0 1 3.98-5.92c.81-.33 1.7-.49 2.65-.49s1.83.16 2.63.49a6.1 6.1 0 0 1 3.47 3.36c.34.78.5 1.64.5 2.56a6.4 6.4 0 0 1-1.88 4.59 6.33 6.33 0 0 1-2.09 1.35 7.2 7.2 0 0 1-2.63.47Zm0-1.18c.76 0 1.45-.13 2.1-.38a5.01 5.01 0 0 0 2.78-2.75c.26-.64.4-1.33.4-2.09a5.26 5.26 0 0 0-1.52-3.73 5.4 5.4 0 0 0-3.76-1.5 5.53 5.53 0 0 0-3.8 1.5 5.26 5.26 0 0 0-1.51 3.73 5.35 5.35 0 0 0 1.51 3.74 5.21 5.21 0 0 0 3.8 1.48Zm16.47 1.19c-1.6 0-2.87-.46-3.8-1.39-.92-.92-1.38-2.29-1.38-4.1V12.4h1.33v7.16c0 1.5.33 2.59 1 3.3.68.7 1.63 1.06 2.85 1.06 1.24 0 2.19-.35 2.86-1.06.67-.71 1.01-1.8 1.01-3.3V12.4h1.3v7.22c0 1.81-.47 3.18-1.39 4.1a5.07 5.07 0 0 1-3.78 1.39Zm10.98-.11V12.4h1.1l8.7 10.94h-.58V12.4h1.31V25h-1.1l-8.67-10.94h.57V25h-1.33Zm21.97.1a6.53 6.53 0 0 1-4.77-1.82 6.31 6.31 0 0 1-1.87-4.58 6.17 6.17 0 0 1 4-5.92c.8-.33 1.7-.49 2.66-.49.96 0 1.83.15 2.63.45.8.3 1.48.76 2.05 1.37l-.83.85a4.71 4.71 0 0 0-1.75-1.14 6.04 6.04 0 0 0-4.2.06 5.04 5.04 0 0 0-3.25 4.82c0 .74.13 1.43.4 2.07.27.64.65 1.2 1.13 1.67a5.43 5.43 0 0 0 3.85 1.48c.72 0 1.4-.1 2.04-.32a4.74 4.74 0 0 0 1.78-1.1l.75 1c-.6.53-1.3.94-2.1 1.21s-1.65.4-2.52.4Zm3.35-1.76V18.7h1.28v4.8l-1.28-.16Zm8.03-5.3h6.66v1.13h-6.66v-1.14Zm.15 5.8h7.57V25h-8.9V12.4h8.63v1.15h-7.3v10.3Z"/><path stroke="#F5D581" d="M.5 21a20.5 20.5 0 1 1 41 0v25.5H.5V21Z"/></svg>